<svg width="32" height="32" viewBox="0 0 256 256" xmlns="http://www.w3.org/2000/svg">
  <defs>
    <filter id="shadow-favicon" x="-20%" y="-20%" width="140%" height="140%">
      <feDropShadow dx="0" dy="4" stdDeviation="3" floodColor="#000000" floodOpacity="0.35"/>
    </filter>

    <linearGradient id="grad-left-favicon" x1="0%" y1="0%" x2="0%" y2="100%">
      <stop offset="0%" stopColor="#515151"/>
      <stop offset="40%" stopColor="#2B2B2B"/>
      <stop offset="70%" stopColor="#1A1A1A"/>
      <stop offset="100%" stopColor="#050505"/>
    </linearGradient>

    <linearGradient id="grad-mid-favicon" x1="0%" y1="0%" x2="100%" y2="100%">
      <stop offset="0%" stopColor="#FFFFFF"/>
      <stop offset="25%" stopColor="#EDEDED"/>
      <stop offset="55%" stopColor="#B2B2B2"/>
      <stop offset="80%" stopColor="#7A7A7A"/>
      <stop offset="100%" stopColor="#505050"/>
    </linearGradient>

    <linearGradient id="grad-right-favicon" x1="0%" y1="0%" x2="0%" y2="100%">
      <stop offset="0%" stopColor="#DCDCDC"/>
      <stop offset="40%" stopColor="#A6A6A6"/>
      <stop offset="80%" stopColor="#6B6B6B"/>
      <stop offset="100%" stopColor="#3A3A3A"/>
    </linearGradient>

    <linearGradient id="grad-edge-favicon" x1="0%" y1="0%" x2="100%" y2="100%">
      <stop offset="0%" stopColor="#FFFFFF" stopOpacity="0.9"/>
      <stop offset="40%" stopColor="#F4F4F4" stopOpacity="0.7"/>
      <stop offset="100%" stopColor="#CFCFCF" stopOpacity="0.2"/>
    </linearGradient>
  </defs>

  <g filter="url(#shadow-favicon)" transform="translate(24,12)">
    <path
      d="M40 32 H92 C98 32 102 36 102 42 V212 C102 218 98 222 92 222 H40 C34 222 30 218 30 212 V42 C30 36 34 32 40 32 Z"
      fill="url(#grad-left-favicon)"
    />
    <path
      d="M102 32 H150 C156 32 160 36 158 42 L128 222 C127 228 123 232 117 232 H69 C63 232 59 228 60 222 L92 42 C93 36 97 32 102 32 Z"
      fill="url(#grad-mid-favicon)"
    />
    <path
      d="M150 32 H198 C204 32 208 36 208 42 V212 C208 218 204 222 198 222 H150 C144 222 140 218 140 212 V42 C140 36 144 32 150 32 Z"
      fill="url(#grad-right-favicon)"
    />
    <path
      d="M92 42 L60 222"
      stroke="url(#grad-edge-favicon)"
      strokeWidth="1.4"
      strokeLinecap="round"
    />
    <path
      d="M150 32 L140 222"
      stroke="url(#grad-edge-favicon)"
      strokeWidth="1.2"
      strokeLinecap="round"
    />
  </g>
</svg>

